<?xml version="1.0" encoding="utf-8"?>
<!-- Generator: Adobe Illustrator 19.2.1, SVG Export Plug-In . SVG Version: 6.00 Build 0)  -->
<svg version="1.1" id="Layer_1" xmlns="http://www.w3.org/2000/svg" xmlns:xlink="http://www.w3.org/1999/xlink" x="0px" y="0px"
	 viewBox="0 0 180 320" style="enable-background:new 0 0 180 320;" xml:space="preserve">
<style type="text/css">
	.st0{fill:#FFFFFF;stroke:#000000;stroke-width:2;stroke-miterlimit:10;}
</style>
	<path class="st0" d="M0,140.2c13.1-10.5,34.7-17,48.5-4.1c5.5,5.2,7.6,12.1,9.2,19.2c2.4,10.5,4.3,21,7.2,31.4
		c2.4,8.6,4.3,19.6,10.4,26.7c4.3,5,17.7,13.4,23.1,4.8c5.9-9.4,6.8-22.5,9.7-33c4.9-17.8,13-14.6,15.7-14.6c1.8,0,9,2.3,15.4,5.4
		c6.2,3,11.9,7.7,17.9,11.2c7,4.1,16.5,9.2,22.8,6.6l0,125.5l-180,0l0,-179.8"/>
</svg>
