<?xml version="1.0" encoding="utf-8"?>
<!-- Generator: Adobe Illustrator 21.1.0, SVG Export Plug-In . SVG Version: 6.00 Build 0)  -->
<svg version="1.1" id="Layer_1" xmlns="http://www.w3.org/2000/svg" xmlns:xlink="http://www.w3.org/1999/xlink" x="0px" y="0px"
	 viewBox="0 0 30 30" style="enable-background:new 0 0 30 30;" xml:space="preserve">
<style type="text/css">
	.st0{fill:#057BC4;}
	.st1{fill:#57A2BA;}
	.st2{fill:#23A7DB;}
</style>
<title>method_paypal</title>
<desc>Created with Sketch.</desc>
<g id="Assets">
	<g id="method_paypal">
		<g id="Group" transform="translate(4.000000, 2.000000)">
			<path id="Shape" class="st0" d="M20.3,6.8c0.3-2.1,0-3.5-1.1-4.8c-1.2-1.4-3.5-2-6.3-2H4.6C4,0,3.5,0.4,3.4,1L0,23
				c-0.1,0.4,0.3,0.8,0.7,0.8h5.1l-0.4,2.2c-0.1,0.4,0.2,0.7,0.6,0.7h4.3c0.5,0,0.9-0.4,1-0.9l0-0.2l0.8-5.2l0.1-0.3
				c0.1-0.5,0.5-0.9,1-0.9h0.6c4.2,0,7.4-1.7,8.4-6.6c0.4-2.1,0.2-3.8-0.9-5C21.1,7.4,20.7,7,20.3,6.8L20.3,6.8"/>
			<path id="Shape_1_" class="st1" d="M20.3,6.8c0.3-2.1,0-3.5-1.1-4.8c-1.2-1.4-3.5-2-6.3-2H4.6C4,0,3.5,0.4,3.4,1L0,23
				c-0.1,0.4,0.3,0.8,0.7,0.8h5.1l1.3-8.2l0,0.3c0.1-0.6,0.6-1,1.2-1h2.4c4.8,0,8.5-1.9,9.6-7.6C20.2,7.1,20.2,7,20.3,6.8"/>
			<path id="Shape_2_" class="st2" d="M8.5,6.8C8.5,6.5,8.7,6.2,9,6.1C9.2,6,9.3,6,9.5,6h6.5c0.8,0,1.5,0.1,2.1,0.2
				c0.2,0,0.4,0.1,0.5,0.1c0.2,0,0.3,0.1,0.5,0.1c0.1,0,0.2,0.1,0.2,0.1c0.3,0.1,0.6,0.2,0.9,0.4c0.3-2.1,0-3.5-1.1-4.8
				c-1.2-1.4-3.5-2-6.3-2H4.6C4,0,3.5,0.4,3.4,1L0,23c-0.1,0.4,0.3,0.8,0.7,0.8h5.1l1.3-8.2L8.5,6.8L8.5,6.8z"/>
		</g>
	</g>
</g>
</svg>
